<svg xmlns="http://www.w3.org/2000/svg" width="32" height="34" fill="none"><path fill="#fff" d="M13 27.91h4V16.652h5v-3.07h-5c0-2.047 0-5.117 3-5.117v-3.07c-7 0-7 5.117-7 8.187h-3v3.07h3v11.256Z"/><path fill="#000" d="M20 5.396v3.07c-3 0-3 3.07-3 5.117h5v3.07h-5v11.256h-4V16.653h-3v-3.07h3c0-3.07 0-8.187 7-8.187Zm0-1.023c-7.17 0-7.91 4.994-8 8.187h-2a.989.989 0 0 0-.707.3 1.036 1.036 0 0 0-.293.723v3.07c0 .271.105.532.293.724.187.191.442.3.707.3h2v10.232c0 .272.105.532.293.724.187.192.442.3.707.3h4c.265 0 .52-.108.707-.3.188-.192.293-.452.293-.724V17.676h4c.265 0 .52-.108.707-.3.188-.191.293-.452.293-.723v-3.07c0-.271-.105-.532-.293-.724a.989.989 0 0 0-.707-.3h-4c.08-2.046.5-3.07 2-3.07.265 0 .52-.107.707-.299.188-.192.293-.452.293-.724v-3.07c0-.271-.105-.531-.293-.723a.989.989 0 0 0-.707-.3Z"/></svg>