<svg xmlns="http://www.w3.org/2000/svg" width="32" height="34" fill="none"><path fill="#000" d="m10 6.42 2.68 5.475-1.37 2.711c2.68 5.485 6.7 6.856 6.7 6.856l2.68-1.37 5.31 2.7v4.094C14 25.556 7.24 17.062 6 6.42h4Zm0-1.024H6a.981.981 0 0 0-.72.328.964.964 0 0 0-.28.767C6.45 18.577 14.28 26.58 25.94 27.91H26a.986.986 0 0 0 .64-.245 1.043 1.043 0 0 0 .36-.778v-4.093a.978.978 0 0 0-.14-.52.948.948 0 0 0-.39-.36l-5.36-2.743a.883.883 0 0 0-.42-.102.892.892 0 0 0-.43.102L18 20.378a12.955 12.955 0 0 1-5.61-5.772l1.12-2.292a1.044 1.044 0 0 0 0-.87L10.83 5.94a.955.955 0 0 0-.34-.392.924.924 0 0 0-.49-.15Z"/></svg>